HIERARCHY
ROOT newVegas:Hips
{
	OFFSET 0.000000 96.479958 0.000000
	CHANNELS 6 Xposition Yposition Zposition Xrotation Yrotation Zrotation
	JOINT newVegas:Pelvis
	{
		OFFSET 0.000000 0.000000 0.000000
		CHANNELS 3 Xrotation Yrotation Zrotation
		JOINT newVegas:LeftUpLeg
		{
			OFFSET 18.735201 -5.666702 -4.541200
			CHANNELS 3 Xrotation Yrotation Zrotation
			JOINT newVegas:LeftLeg
			{
				OFFSET -0.021200 -31.938179 0.493100
				CHANNELS 3 Xrotation Yrotation Zrotation
				JOINT newVegas:LeftFoot
				{
					OFFSET 0.021200 -31.938179 -4.336299
					CHANNELS 3 Xrotation Yrotation Zrotation
					JOINT newVegas:LeftToeBase
					{
						OFFSET 0.943001 -26.722000 15.023500
						CHANNELS 3 Xrotation Yrotation Zrotation
						End Site
						{
							OFFSET 0.000000 30.670183 0.000000
						}
					}
				}
				JOINT newVegas:Left_PantLeg
				{
					OFFSET 0.663870 -9.044666 -1.108900
					CHANNELS 3 Xrotation Yrotation Zrotation
					End Site
					{
						OFFSET 1.415995 20.635357 0.000000
					}
				}
			}
		}
		JOINT newVegas:RightUpLeg
		{
			OFFSET -18.735201 -5.666702 -4.541200
			CHANNELS 3 Xrotation Yrotation Zrotation
			JOINT newVegas:RightLeg
			{
				OFFSET 0.018946 -31.938133 0.493100
				CHANNELS 3 Xrotation Yrotation Zrotation
				JOINT newVegas:RightFoot
				{
					OFFSET -0.018946 -31.938126 -4.336299
					CHANNELS 3 Xrotation Yrotation Zrotation
					JOINT newVegas:RightToeBase
					{
						OFFSET -0.943001 -26.722004 15.023500
						CHANNELS 3 Xrotation Yrotation Zrotation
						End Site
						{
							OFFSET 0.000000 30.670187 0.000000
						}
					}
				}
				JOINT newVegas:Right_PantLeg
				{
					OFFSET -0.661674 -9.044716 -1.108900
					CHANNELS 3 Xrotation Yrotation Zrotation
					End Site
					{
						OFFSET -1.415958 20.635269 0.000000
					}
				}
			}
		}
	}
	JOINT newVegas:Spine
	{
		OFFSET 0.000000 10.199997 -0.299500
		CHANNELS 3 Xrotation Yrotation Zrotation
		JOINT newVegas:Spine1
		{
			OFFSET 0.000000 11.900002 -1.516600
			CHANNELS 3 Xrotation Yrotation Zrotation
			JOINT newVegas:Spine2
			{
				OFFSET 0.000000 13.600006 -2.842500
				CHANNELS 3 Xrotation Yrotation Zrotation
				JOINT newVegas:Neck
				{
					OFFSET 0.000000 9.624100 -2.890100
					CHANNELS 3 Xrotation Yrotation Zrotation
					JOINT newVegas:Head
					{
						OFFSET 0.000000 14.068802 -1.351900
						CHANNELS 3 Xrotation Yrotation Zrotation
						JOINT newVegas:Hair_Back
						{
							OFFSET 0.000000 3.231903 -17.524799
							CHANNELS 3 Xrotation Yrotation Zrotation
							End Site
							{
								OFFSET 0.000000 19.849884 0.000000
							}
						}
						JOINT newVegas:Hair_Front
						{
							OFFSET 0.000000 31.260406 4.573800
							CHANNELS 3 Xrotation Yrotation Zrotation
							JOINT newVegas:Hair_Front1
							{
								OFFSET 0.000000 2.284103 11.993300
								CHANNELS 3 Xrotation Yrotation Zrotation
								JOINT newVegas:Hair_Front2
								{
									OFFSET 0.000000 2.284103 11.993300
									CHANNELS 3 Xrotation Yrotation Zrotation
									End Site
									{
										OFFSET 0.000000 12.208862 0.000000
									}
								}
							}
						}
						JOINT newVegas:Jowel
						{
							OFFSET 0.000000 -7.458206 6.864100
							CHANNELS 3 Xrotation Yrotation Zrotation
							End Site
							{
								OFFSET 0.000000 19.849884 0.000000
							}
						}
					}
				}
				JOINT newVegas:LeftShoulder
				{
					OFFSET 15.263000 10.923401 -0.547700
					CHANNELS 3 Xrotation Yrotation Zrotation
					JOINT newVegas:LeftArm
					{
						OFFSET 25.438599 -2.830597 -13.032500
						CHANNELS 3 Xrotation Yrotation Zrotation
						JOINT newVegas:LeftForeArm
						{
							OFFSET 29.960503 0.000000 0.000000
							CHANNELS 3 Xrotation Yrotation Zrotation
							JOINT newVegas:LeftHand
							{
								OFFSET 27.849251 0.000000 0.000000
								CHANNELS 3 Xrotation Yrotation Zrotation
								JOINT newVegas:LeftHandThumb1
								{
									OFFSET 4.487587 -3.305161 6.305391
									CHANNELS 3 Xrotation Yrotation Zrotation
									JOINT newVegas:LeftHandThumb2
									{
										OFFSET 5.480453 -3.164139 3.164143
										CHANNELS 3 Xrotation Yrotation Zrotation
										JOINT newVegas:LeftHandThumb3
										{
											OFFSET 5.159721 -2.978973 2.978967
											CHANNELS 3 Xrotation Yrotation Zrotation
											End Site
											{
												OFFSET 2.494507 5.926697 1.738678
											}
										}
									}
								}
								JOINT newVegas:LeftHandIndex1
								{
									OFFSET 18.578728 -0.527832 5.208049
									CHANNELS 3 Xrotation Yrotation Zrotation
									JOINT newVegas:LeftHandIndex2
									{
										OFFSET 3.192009 0.000000 0.000000
										CHANNELS 3 Xrotation Yrotation Zrotation
										JOINT newVegas:LeftHandIndex3
										{
											OFFSET 3.835129 0.000000 0.000000
											CHANNELS 3 Xrotation Yrotation Zrotation
											End Site
											{
												OFFSET -0.034599 3.816971 0.371180
											}
										}
									}
								}
								JOINT newVegas:LeftHandMiddle1
								{
									OFFSET 18.476105 0.000000 0.000000
									CHANNELS 3 Xrotation Yrotation Zrotation
									JOINT newVegas:LeftHandMiddle2
									{
										OFFSET 3.324875 0.000000 0.000000
										CHANNELS 3 Xrotation Yrotation Zrotation
										JOINT newVegas:LeftHandMiddle3
										{
											OFFSET 4.596550 0.000000 0.000000
											CHANNELS 3 Xrotation Yrotation Zrotation
											End Site
											{
												OFFSET 0.057701 4.578827 0.399218
											}
										}
									}
								}
								JOINT newVegas:LeftHandRing1
								{
									OFFSET 17.732719 0.121887 -4.201567
									CHANNELS 3 Xrotation Yrotation Zrotation
									JOINT newVegas:LeftHandRing2
									{
										OFFSET 2.733170 0.000000 0.000000
										CHANNELS 3 Xrotation Yrotation Zrotation
										JOINT newVegas:LeftHandRing3
										{
											OFFSET 3.178268 0.000000 0.000000
											CHANNELS 3 Xrotation Yrotation Zrotation
											End Site
											{
												OFFSET 0.119102 3.170624 0.185394
											}
										}
									}
								}
								JOINT newVegas:LeftHandPinky1
								{
									OFFSET 15.989624 -0.606689 -7.535461
									CHANNELS 3 Xrotation Yrotation Zrotation
									JOINT newVegas:LeftHandPinky2
									{
										OFFSET 2.538986 0.000000 0.000000
										CHANNELS 3 Xrotation Yrotation Zrotation
										JOINT newVegas:LeftHandPinky3
										{
											OFFSET 2.593102 0.000000 0.000000
											CHANNELS 3 Xrotation Yrotation Zrotation
											End Site
											{
												OFFSET -0.150902 2.584198 0.152708
											}
										}
									}
								}
							}
							JOINT newVegas:Left_Sleeve
							{
								OFFSET 0.267448 -0.649796 0.577675
								CHANNELS 3 Xrotation Yrotation Zrotation
								End Site
								{
									OFFSET 0.000000 15.991241 0.000000
								}
							}
							JOINT newVegas:Left_CapeC
							{
								OFFSET 15.715958 -8.608795 -6.935905
								CHANNELS 3 Xrotation Yrotation Zrotation
								JOINT newVegas:Left_CapeC1
								{
									OFFSET 0.000000 -8.688499 0.000000
									CHANNELS 3 Xrotation Yrotation Zrotation
									End Site
									{
										OFFSET 0.000000 8.688499 0.000000
									}
								}
							}
						}
						JOINT newVegas:Left_CapeB
						{
							OFFSET 26.118385 -8.608795 -7.079235
							CHANNELS 3 Xrotation Yrotation Zrotation
							JOINT newVegas:Left_CapeB1
							{
								OFFSET 0.000000 -8.688499 0.000000
								CHANNELS 3 Xrotation Yrotation Zrotation
								End Site
								{
									OFFSET 0.000000 8.688499 0.000000
								}
							}
						}
						JOINT newVegas:Left_CapeA
						{
							OFFSET 5.115639 -8.608795 -10.395809
							CHANNELS 3 Xrotation Yrotation Zrotation
							JOINT newVegas:Left_CapeA1
							{
								OFFSET 0.000000 -8.688499 0.000000
								CHANNELS 3 Xrotation Yrotation Zrotation
								End Site
								{
									OFFSET 0.000000 8.688499 0.000000
								}
							}
						}
					}
				}
				JOINT newVegas:RightShoulder
				{
					OFFSET -15.263000 10.923401 -0.547700
					CHANNELS 3 Xrotation Yrotation Zrotation
					JOINT newVegas:RightArm
					{
						OFFSET -25.438599 -2.830597 -13.032500
						CHANNELS 3 Xrotation Yrotation Zrotation
						JOINT newVegas:RightForeArm
						{
							OFFSET -29.960503 0.000000 0.000000
							CHANNELS 3 Xrotation Yrotation Zrotation
							JOINT newVegas:RightHand
							{
								OFFSET -27.849251 0.000000 0.000000
								CHANNELS 3 Xrotation Yrotation Zrotation
								JOINT newVegas:RightHandThumb1
								{
									OFFSET -4.487587 -3.305161 6.305391
									CHANNELS 3 Xrotation Yrotation Zrotation
									JOINT newVegas:RightHandThumb2
									{
										OFFSET -5.480453 -3.164139 3.164143
										CHANNELS 3 Xrotation Yrotation Zrotation
										JOINT newVegas:RightHandThumb3
										{
											OFFSET -5.159721 -2.978973 2.978967
											CHANNELS 3 Xrotation Yrotation Zrotation
											End Site
											{
												OFFSET -2.494507 5.926697 1.738678
											}
										}
									}
								}
								JOINT newVegas:RightHandIndex1
								{
									OFFSET -18.578728 -0.527832 5.208049
									CHANNELS 3 Xrotation Yrotation Zrotation
									JOINT newVegas:RightHandIndex2
									{
										OFFSET -3.192009 0.000000 0.000000
										CHANNELS 3 Xrotation Yrotation Zrotation
										JOINT newVegas:RightHandIndex3
										{
											OFFSET -3.835129 0.000000 0.000000
											CHANNELS 3 Xrotation Yrotation Zrotation
											End Site
											{
												OFFSET 0.034599 3.816971 0.371180
											}
										}
									}
								}
								JOINT newVegas:RightHandMiddle1
								{
									OFFSET -18.476105 0.000000 0.000000
									CHANNELS 3 Xrotation Yrotation Zrotation
									JOINT newVegas:RightHandMiddle2
									{
										OFFSET -3.324875 0.000000 0.000000
										CHANNELS 3 Xrotation Yrotation Zrotation
										JOINT newVegas:RightHandMiddle3
										{
											OFFSET -4.596550 0.000000 0.000000
											CHANNELS 3 Xrotation Yrotation Zrotation
											End Site
											{
												OFFSET -0.057701 4.578827 0.399218
											}
										}
									}
								}
								JOINT newVegas:RightHandRing1
								{
									OFFSET -17.732719 0.121887 -4.201567
									CHANNELS 3 Xrotation Yrotation Zrotation
									JOINT newVegas:RightHandRing2
									{
										OFFSET -2.733170 0.000000 0.000000
										CHANNELS 3 Xrotation Yrotation Zrotation
										JOINT newVegas:RightHandRing3
										{
											OFFSET -3.178268 0.000000 0.000000
											CHANNELS 3 Xrotation Yrotation Zrotation
											End Site
											{
												OFFSET -0.119102 3.170624 0.185394
											}
										}
									}
								}
								JOINT newVegas:RightHandPinky1
								{
									OFFSET -15.989624 -0.606689 -7.535461
									CHANNELS 3 Xrotation Yrotation Zrotation
									JOINT newVegas:RightHandPinky2
									{
										OFFSET -2.538986 0.000000 0.000000
										CHANNELS 3 Xrotation Yrotation Zrotation
										JOINT newVegas:RightHandPinky3
										{
											OFFSET -2.593102 0.000000 0.000000
											CHANNELS 3 Xrotation Yrotation Zrotation
											End Site
											{
												OFFSET 0.150902 2.584198 0.152708
											}
										}
									}
								}
							}
							JOINT newVegas:Right_CapeC
							{
								OFFSET -15.715958 -8.608795 -6.935905
								CHANNELS 3 Xrotation Yrotation Zrotation
								JOINT newVegas:Right_CapeC1
								{
									OFFSET 0.000000 -8.688499 0.000000
									CHANNELS 3 Xrotation Yrotation Zrotation
									End Site
									{
										OFFSET 0.000000 8.688499 0.000000
									}
								}
							}
							JOINT newVegas:Right_Sleeve
							{
								OFFSET -0.267448 -0.649994 0.577675
								CHANNELS 3 Xrotation Yrotation Zrotation
								End Site
								{
									OFFSET 0.000000 15.991302 0.000000
								}
							}
						}
						JOINT newVegas:Right_CapeA
						{
							OFFSET -5.115540 -8.608795 -10.395824
							CHANNELS 3 Xrotation Yrotation Zrotation
							JOINT newVegas:Right_CapeA1
							{
								OFFSET 0.000000 -8.688499 0.000000
								CHANNELS 3 Xrotation Yrotation Zrotation
								End Site
								{
									OFFSET 0.000000 8.688499 0.000000
								}
							}
						}
						JOINT newVegas:Right_CapeB
						{
							OFFSET -26.118187 -8.608795 -7.079266
							CHANNELS 3 Xrotation Yrotation Zrotation
							JOINT newVegas:Right_CapeB1
							{
								OFFSET 0.000000 -8.688499 0.000000
								CHANNELS 3 Xrotation Yrotation Zrotation
								End Site
								{
									OFFSET 0.000000 8.688499 0.000000
								}
							}
						}
					}
				}
				JOINT newVegas:Left_Collar
				{
					OFFSET 18.625099 8.655502 8.828100
					CHANNELS 3 Xrotation Yrotation Zrotation
					JOINT newVegas:Left_Collar1
					{
						OFFSET 14.783401 10.540405 -1.259500
						CHANNELS 3 Xrotation Yrotation Zrotation
						End Site
						{
							OFFSET 0.000000 18.199875 0.000000
						}
					}
				}
				JOINT newVegas:Collar_Back
				{
					OFFSET 0.000000 15.630707 -20.132601
					CHANNELS 3 Xrotation Yrotation Zrotation
					End Site
					{
						OFFSET 0.000000 22.523010 0.000000
					}
				}
				JOINT newVegas:Left_Peck
				{
					OFFSET 17.239599 -5.132599 25.482599
					CHANNELS 3 Xrotation Yrotation Zrotation
					End Site
					{
						OFFSET 0.000000 22.523010 0.000000
					}
				}
				JOINT newVegas:Right_Peck
				{
					OFFSET -17.239599 -5.132202 25.482599
					CHANNELS 3 Xrotation Yrotation Zrotation
					End Site
					{
						OFFSET 0.000000 22.523010 0.000000
					}
				}
				JOINT newVegas:Right_Collar
				{
					OFFSET -18.625099 8.655792 8.828100
					CHANNELS 3 Xrotation Yrotation Zrotation
					JOINT newVegas:Right_Collar1
					{
						OFFSET -14.783401 10.539993 -1.259500
						CHANNELS 3 Xrotation Yrotation Zrotation
						End Site
						{
							OFFSET 0.000000 18.199631 0.000000
						}
					}
				}
			}
		}
		JOINT newVegas:Belly
		{
			OFFSET 0.000000 -6.540398 9.014299
			CHANNELS 3 Xrotation Yrotation Zrotation
			End Site
			{
				OFFSET 0.000000 11.566666 0.000000
			}
		}
	}
	JOINT newVegas:ElvisFacialAnim_Joint
	{
		OFFSET 1.000000 -95.330101 -8.825800
		CHANNELS 3 Xrotation Yrotation Zrotation
		End Site
		{
			OFFSET 0.000000 35.315800 0.000000
		}
	}
}
MOTION
Frames: 4
Frame Time: 0.033333
-2.814249 94.893600 3.737747 7.992814 -11.149401 0.308130 -0.000001 -0.000000 -0.000000 -18.221136 9.449758 5.481120 17.477214 -0.186353 -0.600536 -6.588031 11.981071 -1.866505 -0.000000 0.000000 0.000000 0.000001 -0.000000 -0.000000 -19.717829 -0.411279 3.664050 12.339976 0.007294 0.484419 0.377222 6.724434 -2.417688 -0.000000 0.000000 -0.000000 -0.000000 0.000000 -0.000000 3.743782 0.182438 0.221827 7.486320 0.398723 0.536818 7.486321 0.398722 0.536818 0.873052 0.446101 -0.395302 0.873043 0.446098 -0.395299 -0.000003 -0.000001 0.000000 0.873117 0.446110 -0.395302 0.873042 0.446093 -0.395300 0.000001 0.000000 0.000000 -0.000003 -0.000001 0.000001 -1.229345 -0.833746 -7.780305 -47.456079 -49.980053 -58.899945 0.093976 -52.391663 0.158222 38.597355 27.384989 23.887349 7.444019 10.871181 2.392044 -7.378534 23.689188 -3.983565 0.000000 -0.000004 -0.000007 0.744987 -4.764211 -8.218212 0.148137 0.597370 -18.422349 -0.000000 -0.000000 -0.000000 -7.513124 4.934421 -59.580041 -2.484801 -3.925981 -66.942534 -0.000002 0.000000 0.000001 -11.640597 5.308148 -80.900326 -3.551118 -4.959775 -70.017471 0.000002 -0.000002 -0.000001 -17.710947 7.845050 -83.187039 -9.491636 -7.604142 -96.889573 0.000003 -0.000005 0.000001 0.000003 0.000003 0.000001 0.000003 0.000003 0.000001 0.000002 0.000002 0.000001 -0.000002 0.000000 0.000001 -0.000001 -0.000001 -0.000000 -0.000002 0.000000 0.000001 -0.000002 0.000001 0.000001 -1.794663 2.722961 4.555688 1.988859 31.326973 66.829139 -0.471790 18.841642 0.021881 -7.226382 2.116909 -8.543143 -0.913200 -7.622794 -11.555508 4.020973 -10.171601 -2.250840 -0.000000 -0.000003 -0.000001 -0.487349 -2.306643 30.421270 0.534013 -1.830130 38.665482 0.000000 0.000002 0.000005 -1.483953 -0.817375 40.665635 -0.984643 1.947224 43.590752 -0.000002 -0.000001 -0.000001 -2.036966 -0.996370 48.679093 -3.501053 6.048232 64.376787 -0.000000 0.000001 -0.000002 -3.881652 -1.999616 62.262058 -7.311262 12.335712 74.922456 -0.000001 0.000001 0.000001 0.000002 -0.000000 -0.000000 0.000002 0.000000 -0.000000 0.000002 -0.000000 -0.000000 0.000001 -0.000003 -0.000000 0.000001 -0.000003 -0.000000 0.000001 -0.000003 -0.000000 0.000001 -0.000003 -0.000000 -0.000002 0.000000 -0.000000 -0.000002 0.000000 -0.000000 -0.000002 0.000000 -0.000000 -0.000002 0.000000 -0.000000 -0.000002 0.000000 -0.000000 -0.000002 0.000000 -0.000000 -0.000002 0.000000 -0.000000 0.000001 0.000001 -0.000000 -0.000001 -0.000000 -0.000000 
-2.821217 94.889320 3.730662 8.040914 -11.124316 0.261140 0.000001 -0.000000 0.000000 -18.335088 9.432185 5.553038 17.568324 -0.187918 -0.602608 -6.646685 11.949402 -1.861829 0.000000 -0.000001 -0.000000 0.000000 0.000000 0.000000 -19.747443 -0.438956 3.721873 12.275291 0.007281 0.483696 0.451581 6.728850 -2.424773 0.000000 0.000000 0.000000 0.000000 -0.000000 -0.000001 3.751318 0.186653 0.212672 7.501403 0.408155 0.524168 7.501390 0.408160 0.524167 0.862967 0.446176 -0.392431 0.862935 0.446181 -0.392433 0.000001 0.000000 -0.000000 0.863024 0.446179 -0.392432 0.863010 0.446185 -0.392434 -0.000002 -0.000000 -0.000000 0.000001 0.000000 -0.000000 -1.231487 -0.844828 -7.773414 -47.474435 -50.086901 -58.834286 0.096478 -52.507527 0.160322 38.606107 27.511234 23.801276 7.507384 10.910320 2.309174 -7.328311 23.786491 -4.017963 0.000002 -0.000002 -0.000003 0.519626 -4.894097 -10.514347 0.148132 0.597357 -18.422335 -0.000000 0.000001 -0.000003 -7.530479 4.986370 -59.833045 -2.501253 -3.934957 -67.182178 -0.000002 0.000002 0.000003 -11.659599 5.361129 -81.156280 -3.570630 -4.964853 -70.243264 0.000001 -0.000002 -0.000003 -17.744611 7.939531 -83.477008 -9.529932 -7.586269 -97.183183 0.000003 -0.000002 -0.000002 0.000003 -0.000001 -0.000001 0.000003 -0.000001 -0.000001 0.000002 -0.000001 -0.000001 -0.000002 -0.000002 0.000001 -0.000002 -0.000003 0.000000 -0.000002 -0.000002 0.000001 -0.000004 -0.000001 0.000001 -1.785259 2.643389 4.558617 1.810718 31.452225 66.794783 -0.466529 19.034270 0.021540 -6.928586 1.978237 -8.328758 -0.919353 -7.617052 -11.553857 4.018401 -10.166386 -2.250792 0.000002 0.000001 0.000001 -0.487793 -2.305855 30.400127 0.533486 -1.829521 38.644319 -0.000003 0.000001 0.000001 -1.483143 -0.818297 40.644526 -0.983433 1.945944 43.562431 -0.000000 0.000000 0.000000 -2.035128 -0.998051 48.658097 -3.496234 6.045928 64.327070 -0.000000 0.000001 -0.000002 -3.874926 -2.003574 62.221439 -7.304267 12.333904 74.880026 0.000000 0.000003 0.000001 0.000001 0.000000 -0.000000 0.000001 0.000000 -0.000000 0.000001 0.000000 0.000000 -0.000002 0.000001 -0.000000 -0.000001 0.000000 0.000001 -0.000002 0.000001 -0.000000 -0.000001 -0.000000 0.000001 0.000000 -0.000000 0.000000 0.000000 -0.000000 0.000000 0.000000 -0.000000 0.000000 0.000000 -0.000000 0.000000 0.000000 -0.000000 0.000000 0.000000 -0.000000 0.000000 0.000000 -0.000000 0.000000 -0.000000 -0.000001 -0.000000 0.000001 -0.000000 0.000000 
-2.828242 94.882103 3.740332 8.086053 -11.184789 0.223688 0.000000 0.000000 -0.000000 -18.418630 9.416408 5.619340 17.693781 -0.190120 -0.606460 -6.752185 12.003894 -1.860841 0.000000 -0.000001 0.000000 -0.000001 -0.000000 -0.000000 -19.783016 -0.462761 3.772602 12.199937 0.007800 0.482530 0.564128 6.842332 -2.424848 0.000000 -0.000001 -0.000000 -0.000000 -0.000001 -0.000001 3.759217 0.192720 0.204750 7.517141 0.421306 0.513843 7.517137 0.421305 0.513844 0.852326 0.443603 -0.386765 0.852307 0.443600 -0.386766 0.000003 0.000000 -0.000001 0.852376 0.443612 -0.386770 0.852294 0.443594 -0.386764 0.000001 -0.000000 0.000000 0.000003 0.000000 -0.000001 -1.224788 -0.817771 -7.697384 -47.646645 -49.837575 -59.063139 0.097517 -52.735880 0.160141 38.936439 27.593747 23.627226 7.089280 10.651047 2.854179 -7.659227 23.144724 -3.793607 0.000002 -0.000003 -0.000003 0.424840 -4.748518 -10.731043 0.148135 0.597343 -18.422323 0.000001 -0.000001 -0.000002 -7.408719 4.647033 -58.164388 -2.393520 -3.874542 -65.601761 -0.000001 0.000002 0.000001 -11.527942 5.014619 -79.468397 -3.442249 -4.929896 -68.754132 0.000002 -0.000001 0.000002 -17.510641 7.323800 -81.564439 -9.275743 -7.700615 -95.246100 0.000008 -0.000003 0.000002 -0.000003 0.000001 0.000001 -0.000003 0.000001 0.000001 -0.000003 0.000000 0.000001 -0.000002 -0.000002 0.000002 -0.000002 -0.000003 0.000000 -0.000002 -0.000002 0.000002 -0.000002 -0.000001 0.000001 -1.775892 2.579708 4.616991 1.696626 31.530653 66.694393 -0.460013 19.307008 0.021333 -6.702616 1.766209 -8.153414 -0.926261 -7.610597 -11.551974 4.015525 -10.160550 -2.250744 -0.000002 -0.000004 -0.000001 -0.488320 -2.304970 30.376399 0.532903 -1.828853 38.620628 0.000001 -0.000002 0.000003 -1.482227 -0.819334 40.620887 -0.982082 1.944526 43.530684 -0.000001 0.000002 0.000003 -2.033088 -0.999930 48.634591 -3.490833 6.043345 64.271356 -0.000001 -0.000001 0.000001 -3.867403 -2.008018 62.175929 -7.296379 12.331866 74.832434 0.000001 0.000000 -0.000003 0.000000 0.000000 0.000000 -0.000001 -0.000000 0.000000 0.000000 -0.000000 0.000000 -0.000002 0.000001 0.000000 -0.000001 0.000000 0.000001 -0.000002 0.000001 0.000000 -0.000001 -0.000000 0.000001 0.000000 0.000000 -0.000000 0.000000 0.000000 -0.000000 0.000000 0.000000 -0.000000 0.000000 0.000000 -0.000000 0.000000 0.000000 -0.000000 0.000000 0.000000 -0.000000 0.000000 0.000000 -0.000000 0.000000 -0.000001 0.000000 0.000000 0.000000 -0.000000 
-2.834838 94.875114 3.766142 8.125307 -11.307991 0.204840 -0.000000 -0.000000 -0.000000 -18.462090 9.405667 5.664993 17.820855 -0.192395 -0.611268 -6.869007 12.126423 -1.862507 -0.000000 0.000001 -0.000000 0.000001 -0.000000 -0.000000 -19.803807 -0.478486 3.814251 12.129482 0.008294 0.481129 0.651512 6.986618 -2.436275 0.000000 -0.000000 -0.000000 0.000000 -0.000000 -0.000000 3.766278 0.201275 0.199939 7.531185 0.439151 0.507713 7.531187 0.439150 0.507714 0.842089 0.440404 -0.382018 0.842095 0.440402 -0.382015 0.000001 -0.000000 -0.000000 0.842098 0.440400 -0.382018 0.842100 0.440404 -0.382017 -0.000001 -0.000000 -0.000000 0.000001 -0.000000 0.000000 -1.211527 -0.763456 -7.584850 -45.331231 -48.322636 -57.435040 0.126147 -57.273172 0.171930 39.745680 27.979781 23.499780 6.360719 10.192544 3.793784 -8.233643 22.028190 -3.416452 -0.000000 -0.000004 -0.000001 0.372116 -4.446334 -9.961127 -0.621006 2.587694 -26.781648 -0.000001 0.000000 0.000001 -7.156803 4.076201 -55.260158 -2.210166 -3.762484 -62.851353 -0.000000 -0.000001 0.000002 -11.264054 4.429154 -76.531259 -3.221164 -4.861238 -66.162437 -0.000001 -0.000001 0.000001 -17.038525 6.295656 -78.235002 -8.824310 -7.879076 -91.871468 0.000002 -0.000005 0.000002 -0.000002 -0.000001 -0.000002 -0.000002 -0.000001 -0.000002 -0.000002 -0.000001 -0.000002 -0.000002 -0.000003 0.000003 -0.000002 -0.000003 0.000002 -0.000002 -0.000003 0.000003 -0.000003 -0.000002 0.000003 -1.768347 2.543447 4.699968 1.645307 31.569988 66.594973 -0.454578 19.563982 0.021244 -6.545223 1.578126 -8.034728 -0.933844 -7.603501 -11.549899 4.012346 -10.154099 -2.250697 0.000000 -0.000004 -0.000001 -0.488871 -2.304007 30.350277 0.532246 -1.828095 38.594469 0.000003 -0.000001 0.000003 -1.481220 -0.820478 40.594792 -0.980602 1.942959 43.495734 0.000001 0.000001 0.000000 -2.030837 -1.002009 48.608687 -3.484874 6.040485 64.209980 -0.000001 -0.000001 0.000001 -3.859125 -2.012913 62.125789 -7.287729 12.329623 74.780032 -0.000000 0.000001 0.000003 -0.000002 0.000000 0.000000 -0.000002 0.000000 -0.000000 -0.000002 0.000000 0.000001 0.000000 0.000002 -0.000000 0.000001 0.000002 -0.000000 0.000000 0.000002 -0.000000 0.000000 0.000002 -0.000000 -0.000000 0.000000 -0.000000 -0.000000 0.000000 -0.000000 -0.000000 0.000000 -0.000000 -0.000000 0.000000 -0.000000 -0.000000 0.000000 -0.000000 -0.000000 0.000000 -0.000000 -0.000000 0.000000 -0.000000 0.000000 0.000001 -0.000000 -0.000000 -0.000000 -0.000000 
